#N canvas 827 239 527 327 12;
#X obj 305 286 hsl 128 17 0 0.5 0 0 revGain empty Reverb\ Gain -2 -8 0 13 #dde459 #4d4d4d #d40f00 0 1;
#X obj 305 328 hsl 128 17 0 0.5 0 0 revVol empty Reverb\ Output -2 -8 0 13 #dde459 #4d4d4d #d40f00 0 1;
#X text 88 510 Master Volume;
#X obj 72 371 knob 128 0 0.5 0 0 masterVolume empty #18e40e #B7B7B7 #4D4D4D 1 0 10 0 1 270 0 0 0;
#X obj 524 149 knob 50 0 1 0 0 tabVol empty #dce444 #B7B7B7 #4D4D4D 1 0 0 0 1 270 0 0 0;
#X obj 72 149 tgl 50 0 tanpura empty empty 17 7 0 10 #17e400 #fffbf7 #373737 0 1;
#X text 128 177 TANPURA ON, f 16;
#X obj 302 149 knob 50 0 0.8 0 0 tanVol empty #dce444 #B7B7B7 #4D4D4D 1 0 0 0 1 270 0 0 0;
#X obj 72 214 tgl 50 0 tabla empty empty 17 7 0 10 #00e4cc #ffffff #373737 0 1;
#X text 128 230 TABLA ON, f 16;
#X text 517 129 Tabla Vol;
#X text 288 129 Tanpura Vol;
#X floatatom 149 66 6 0 0 0 Metronome mainMetro manMetro 16;
#X obj 209 65 bng 25 250 50 0 m125 empty 125 0 -9 0 13 #e4dc21 #4d4d4d #373737;
#X obj 246 65 bng 25 250 50 0 m175 empty 175 0 -9 0 13 #e4b41d #ffffff #373737;
#X obj 284 65 bng 25 250 50 0 m250 empty 250 0 -9 0 13 #98e41b #4d4d4d #373737;
#N canvas 0 22 450 300 master 0;
#X obj 308 394 dac~;
#X obj 308 344 *~;
#N canvas 0 22 450 300 tabla 0;
#X obj 264 334 outlet~;
#X obj 264 301 *~;
#N canvas 0 22 450 300 tabla-teentaal 0;
#X obj 108 495 tabplay~ tabData1;
#X obj 587 175 metro 1 60 permin;
#X msg 587 120 tempo \$1 permin;
#X obj 587 218 f;
#X obj 638 218 + 1;
#X floatatom 587 324 5 0 0 0 - - - 12;
#X obj 692 708 *~ 0.5;
#X obj 241 495 tabplay~ tabData2;
#X obj 380 495 tabplay~ tabData3;
#X obj 516 495 tabplay~ tabData4;
#N canvas 0 22 450 300 tabla-samples 0;
#X obj 320 223 soundfiler;
#N canvas 0 0 450 250 (subpatch) 0;
#X array tabData1 23000 float 2;
#X coords 0 1 23000 -1 200 140 1;
#X restore 320 286 graph;
#X obj 320 135 loadbang;
#X obj 320 542 soundfiler;
#N canvas 0 0 450 250 (subpatch) 0;
#X array tabData5 23000 float 2;
#X coords 0 1 23000 -1 200 140 1;
#X restore 320 605 graph;
#X obj 320 454 loadbang;
#X obj 579 223 soundfiler;
#N canvas 0 0 450 250 (subpatch) 0;
#X array tabData2 23000 float 2;
#X coords 0 1 23000 -1 200 140 1;
#X restore 579 286 graph;
#X obj 579 135 loadbang;
#X obj 589 542 soundfiler;
#N canvas 0 0 450 250 (subpatch) 0;
#X array tabData6 23094 float 2;
#X coords 0 1 23094 -1 200 140 1;
#X restore 589 605 graph;
#X obj 589 454 loadbang;
#X obj 832 542 soundfiler;
#N canvas 0 0 450 250 (subpatch) 0;
#X array tabData7 23127 float 2;
#X coords 0 1 23127 -1 200 140 1;
#X restore 832 605 graph;
#X obj 832 454 loadbang;
#X obj 831 226 soundfiler;
#N canvas 0 0 450 250 (subpatch) 0;
#X array tabData3 23000 float 2;
#X coords 0 1 23000 -1 200 140 1;
#X restore 831 289 graph;
#X obj 831 138 loadbang;
#X obj 1086 224 soundfiler;
#N canvas 0 0 450 250 (subpatch) 0;
#X array tabData4 22371 float 2;
#X coords 0 1 22371 -1 200 140 1;
#X restore 1086 287 graph;
#X obj 1086 136 loadbang;
#X obj 1086 542 soundfiler;
#N canvas 0 0 450 250 (subpatch) 0;
#X array tabData8 22577 float 2;
#X coords 0 1 22577 -1 200 140 1;
#X restore 1086 605 graph;
#X obj 1086 454 loadbang;
#X obj 1087 861 soundfiler;
#N canvas 0 0 450 250 (subpatch) 0;
#X array tabData12 22925 float 2;
#X coords 0 1 22925 -1 200 140 1;
#X restore 1087 924 graph;
#X obj 1087 773 loadbang;
#X obj 832 861 soundfiler;
#N canvas 0 0 450 250 (subpatch) 0;
#X array tabData11 23102 float 2;
#X coords 0 1 23102 -1 200 140 1;
#X restore 832 924 graph;
#X obj 832 773 loadbang;
#X obj 590 861 soundfiler;
#N canvas 0 0 450 250 (subpatch) 0;
#X array tabData10 23042 float 2;
#X coords 0 1 23042 -1 200 140 1;
#X restore 590 924 graph;
#X obj 590 773 loadbang;
#X obj 322 861 soundfiler;
#N canvas 0 0 450 250 (subpatch) 0;
#X array tabData9 23046 float 2;
#X coords 0 1 23046 -1 200 140 1;
#X restore 322 924 graph;
#X obj 322 773 loadbang;
#X obj 1088 1186 soundfiler;
#N canvas 0 0 450 250 (subpatch) 0;
#X array tabData16 22780 float 2;
#X coords 0 1 22780 -1 200 140 1;
#X restore 1088 1249 graph;
#X obj 1088 1098 loadbang;
#X obj 833 1186 soundfiler;
#N canvas 0 0 450 250 (subpatch) 0;
#X array tabData15 23107 float 2;
#X coords 0 1 23107 -1 200 140 1;
#X restore 833 1249 graph;
#X obj 833 1098 loadbang;
#X obj 591 1186 soundfiler;
#N canvas 0 0 450 250 (subpatch) 0;
#X array tabData14 23086 float 2;
#X coords 0 1 23086 -1 200 140 1;
#X restore 591 1249 graph;
#X obj 591 1098 loadbang;
#X obj 323 1186 soundfiler;
#N canvas 0 0 450 250 (subpatch) 0;
#X array tabData13 22924 float 2;
#X coords 0 1 22924 -1 200 140 1;
#X restore 323 1249 graph;
#X obj 323 1098 loadbang;
#X msg 320 181 read -resize Tabla/Dha1.wav tabData1;
#X msg 579 181 read -resize Tabla/Dhin2.wav tabData2;
#X msg 831 184 read -resize Tabla/Dhin3.wav tabData3;
#X msg 1086 182 read -resize Tabla/Dha4.wav tabData4;
#X msg 320 500 read -resize Tabla/Dha5.wav tabData5;
#X msg 589 500 read -resize Tabla/Dhin6.wav tabData6;
#X msg 832 500 read -resize Tabla/Dhin7.wav tabData7;
#X msg 1086 500 read -resize Tabla/Dha8.wav tabData8;
#X msg 322 819 read -resize Tabla/Dha9.wav tabData9;
#X msg 590 819 read -resize Tabla/Tin10.wav tabData10;
#X msg 832 819 read -resize Tabla/Tin11.wav tabData11;
#X msg 1087 819 read -resize Tabla/Taa12.wav tabData12;
#X msg 323 1144 read -resize Tabla/Taa13.wav tabData13;
#X msg 591 1144 read -resize Tabla/Dhin14.wav tabData14;
#X msg 833 1144 read -resize Tabla/Dhin15.wav tabData15;
#X msg 1088 1144 read -resize Tabla/Dha16.wav tabData16;
#X connect 2 0 48 0;
#X connect 5 0 52 0;
#X connect 8 0 49 0;
#X connect 11 0 53 0;
#X connect 14 0 54 0;
#X connect 17 0 50 0;
#X connect 20 0 51 0;
#X connect 23 0 55 0;
#X connect 26 0 59 0;
#X connect 29 0 58 0;
#X connect 32 0 57 0;
#X connect 35 0 56 0;
#X connect 38 0 63 0;
#X connect 41 0 62 0;
#X connect 44 0 61 0;
#X connect 47 0 60 0;
#X connect 48 0 0 0;
#X connect 49 0 6 0;
#X connect 50 0 15 0;
#X connect 51 0 18 0;
#X connect 52 0 3 0;
#X connect 53 0 9 0;
#X connect 54 0 12 0;
#X connect 55 0 21 0;
#X connect 56 0 33 0;
#X connect 57 0 30 0;
#X connect 58 0 27 0;
#X connect 59 0 24 0;
#X connect 60 0 45 0;
#X connect 61 0 42 0;
#X connect 62 0 39 0;
#X connect 63 0 36 0;
#X restore 843 120 pd tabla-samples;
#X f 16;
#X obj 657 494 tabplay~ tabData5;
#X obj 790 494 tabplay~ tabData6;
#X obj 929 494 tabplay~ tabData7;
#X obj 1065 494 tabplay~ tabData8;
#X obj 193 537 tabplay~ tabData9;
#X obj 332 537 tabplay~ tabData10;
#X obj 468 537 tabplay~ tabData11;
#X obj 609 536 tabplay~ tabData12;
#X obj 742 536 tabplay~ tabData13;
#X obj 881 536 tabplay~ tabData14;
#X obj 1017 536 tabplay~ tabData15;
#X obj 1153 537 tabplay~ tabData16;
#X obj 587 268 % 16;
#X obj 587 364 select 0 1 2 3 4 5 6 7 8 9 10 11 12 13 14;
#X obj 587 84 inlet;
#X obj 512 90 inlet;
#X obj 1133 835 outlet~;
#X obj 1326 400 tabplay~ tabData1;
#X obj 1482 401 tabplay~ tabData5;
#X obj 1396 446 tabplay~ tabData9;
#X obj 1543 443 tabplay~ tabData13;
#X obj 1408 333 select 0 4 8 12;
#X obj 994 749 *~;
#X floatatom 1086 671 5 0 0 0 - - - 12;
#X obj 1086 630 r fillTab;
#X obj 1463 695 *~;
#X obj 1133 787 +~;
#X obj 1177 671 expr $f1 < 1;
#X connect 0 0 6 0;
#X connect 1 0 3 0;
#X connect 2 0 1 0;
#X connect 3 0 4 0;
#X connect 3 0 23 0;
#X connect 4 0 3 1;
#X connect 5 0 24 0;
#X connect 5 0 32 0;
#X connect 6 0 33 0;
#X connect 7 0 6 0;
#X connect 8 0 6 0;
#X connect 9 0 6 0;
#X connect 11 0 6 0;
#X connect 12 0 6 0;
#X connect 13 0 6 0;
#X connect 14 0 6 0;
#X connect 15 0 6 0;
#X connect 16 0 6 0;
#X connect 17 0 6 0;
#X connect 18 0 6 0;
#X connect 19 0 6 0;
#X connect 20 0 6 0;
#X connect 21 0 6 0;
#X connect 22 0 6 0;
#X connect 23 0 5 0;
#X connect 24 0 0 0;
#X connect 24 1 7 0;
#X connect 24 2 8 0;
#X connect 24 3 9 0;
#X connect 24 4 11 0;
#X connect 24 5 12 0;
#X connect 24 6 13 0;
#X connect 24 7 14 0;
#X connect 24 8 15 0;
#X connect 24 9 16 0;
#X connect 24 10 17 0;
#X connect 24 11 18 0;
#X connect 24 12 19 0;
#X connect 24 13 20 0;
#X connect 24 14 21 0;
#X connect 24 15 22 0;
#X connect 25 0 2 0;
#X connect 26 0 1 0;
#X connect 28 0 36 0;
#X connect 29 0 36 0;
#X connect 30 0 36 0;
#X connect 31 0 36 0;
#X connect 32 0 28 0;
#X connect 32 1 29 0;
#X connect 32 2 30 0;
#X connect 32 3 31 0;
#X connect 33 0 37 0;
#X connect 34 0 38 0;
#X connect 34 0 33 1;
#X connect 35 0 34 0;
#X connect 36 0 37 1;
#X connect 37 0 27 0;
#X connect 38 0 36 1;
#X restore 264 261 pd tabla-teentaal;
#X obj 353 201 receive BPM;
#X obj 314 301 receive tabVol;
#X obj 264 201 receive tabla;
#X connect 1 0 0 0;
#X connect 2 0 1 0;
#X connect 3 0 2 1;
#X connect 4 0 1 1;
#X connect 5 0 2 0;
#X restore 231 256 pd tabla;
#N canvas 0 22 450 300 tanpura 0;
#X obj 297 421 outlet~;
#N canvas 0 22 450 300 reverb 0;
#X obj 532 306 *~;
#X obj 625 361 rev2~ 100 90 3000 20;
#X obj 564 393 *~;
#X obj 497 377 *~;
#X floatatom 477 335 5 0 1 0 - - - 12;
#X obj 624 413 *~;
#X obj 550 489 +~;
#X obj 455 306 loadbang;
#X obj 550 596 outlet~;
#X obj 496 243 inlet~;
#X obj 583 243 inlet;
#X obj 687 393 inlet;
#X obj 550 542 *~;
#X obj 663 514 r revTanPlay;
#X floatatom 625 542 5 0 0 0 - - - 12;
#X connect 0 0 1 0;
#X connect 0 0 3 0;
#X connect 1 0 2 0;
#X connect 1 1 5 0;
#X connect 2 0 6 1;
#X connect 3 0 6 0;
#X connect 4 0 3 1;
#X connect 5 0 6 1;
#X connect 6 0 12 0;
#X connect 7 0 4 0;
#X connect 9 0 0 0;
#X connect 10 0 0 1;
#X connect 11 0 5 1;
#X connect 12 0 8 0;
#X connect 13 0 14 0;
#X connect 14 0 12 1;
#X restore 360 293 pd reverb;
#X obj 242 293 *~;
#N canvas 0 22 450 300 tranpura-drone 0;
#X obj 560 779 *~ 0.1;
#X obj 644 775 *~ 0.1;
#X obj 310 648 *~;
#X obj 276 580 osc~;
#X obj 276 546 mtof;
#X obj 358 548 min~;
#X obj 358 506 phasor~ 0.3;
#X obj 460 506 pink~;
#X obj 358 596 lop~ 40;
#X obj 775 634 *~;
#X obj 775 524 osc~;
#X obj 775 490 mtof;
#X obj 849 541 min~;
#X obj 849 499 phasor~ 0.3;
#X obj 951 499 pink~;
#X obj 849 589 lop~ 40;
#X obj 599 589 min~;
#X obj 527 666 delwrite~ tbt 200;
#X obj 960 634 delread~ tbt 200;
#X obj 961 580 delread~ tbt 120;
#X obj 960 687 *~;
#X obj 1097 580 lop~ 40;
#X obj 960 767 *~ 0.8;
#X obj 982 383 random 80;
#X obj 983 426 / 100;
#X obj 979 336 metro 800;
#X obj 432 401 random 80;
#X obj 429 354 metro 800;
#X obj 663 589 vline~;
#X msg 663 541 \$1 300;
#X obj 433 444 / 300;
#X obj 1172 451 random 80;
#X obj 1169 404 metro 800;
#X obj 1173 494 * 10;
#X obj 606 464 phasor~;
#X obj 688 464 phasor~;
#X obj 647 505 *~;
#X obj 396 666 delread~ ddd 600;
#X obj 560 711 *~;
#X obj 405 214 random 4;
#X obj 724 258 select 0 1 2 3;
#X obj 405 174 metro 3000;
#X obj 496 174 random 6000;
#X obj 649 628 vcf~ 10;
#X obj 485 214 delay;
#X obj 289 273 random 3;
#X obj 289 308 select 0 1 2;
#X obj 1164 687 vd~ ddd;
#X obj 1164 648 vline~;
#X obj 1226 490 * 20;
#X obj 1164 729 *~ 0.8;
#X obj 667 383 osc~;
#X obj 667 342 mtof;
#X obj 405 634 delwrite~ ddd 600;
#X obj 1077 214 pink~;
#X obj 1077 258 lop~ 50;
#X obj 1097 629 pink~;
#X obj 1097 673 lop~ 150;
#X obj 325 767 bp~ 50 2;
#X obj 325 732 delread~ ddd;
#X obj 789 814 vline~;
#X msg 789 766 \$1 300;
#X obj 775 853 vcf~ 10;
#X obj 1073 463 * 100;
#X obj 716 426 *~;
#X obj 606 863 outlet~;
#X obj 724 104 inlet;
#X floatatom 187 322 5 0 0 0 - - - 12;
#X obj 110 426 - 17;
#X obj 162 426 + 12;
#X floatatom 223 451 5 0 0 0 - - - 12;
#X floatatom 280 451 5 0 0 0 - - - 12;
#X floatatom 379 451 5 0 0 0 - - - 12;
#X floatatom 325 451 5 0 0 0 - - - 12;
#X obj 325 383 bng 25 250 50 0 empty empty empty 17 7 0 10 #e4e4e4 #4d4d4d #373737;
#X obj 292 383 bng 25 250 50 0 empty empty empty 17 7 0 10 #e4e4e4 #4d4d4d #373737;
#X obj 358 383 bng 25 250 50 0 empty empty empty 17 7 0 10 #e4e4e4 #4d4d4d #373737;
#X obj 259 383 bng 25 250 50 0 empty empty empty 17 7 0 10 #e4e4e4 #4d4d4d #373737;
#X obj 215 426 - 5;
#X obj 624 266 - 36;
#X floatatom 644 214 5 0 0 0 - - - 12;
#X floatatom 644 308 5 0 0 0 - - - 12;
#X obj 679 266 bng 25 250 50 0 empty empty empty 17 7 0 10 #e4e4e4 #4d4d4d #373737;
#X floatatom 275 509 5 0 0 0 - - - 12;
#X obj 860 138 + 4;
#X obj 923 139 - 12;
#X obj 807 139 - 12;
#X obj 887 174 - 5;
#X obj 790 315 bng 25 250 50 0 empty empty empty 17 7 0 10 #e4e4e4 #4d4d4d #373737;
#X obj 757 315 bng 25 250 50 0 empty empty empty 17 7 0 10 #e4e4e4 #4d4d4d #373737;
#X obj 823 315 bng 25 250 50 0 empty empty empty 17 7 0 10 #e4e4e4 #4d4d4d #373737;
#X obj 724 315 bng 25 250 50 0 empty empty empty 17 7 0 10 #e4e4e4 #4d4d4d #373737;
#X floatatom 859 73 5 0 0 0 - - - 12;
#X floatatom 775 379 5 0 0 0 - - - 12;
#X floatatom 724 379 5 0 0 0 - - - 12;
#X floatatom 823 379 5 0 0 0 - - - 12;
#X floatatom 869 379 5 0 0 0 - - - 12;
#X floatatom 785 436 5 0 0 0 - - - 12;
#X obj 189 260 r tanScale;
#X connect 0 0 65 0;
#X connect 1 0 65 0;
#X connect 2 0 0 0;
#X connect 3 0 2 0;
#X connect 3 0 16 0;
#X connect 3 0 64 0;
#X connect 4 0 3 0;
#X connect 4 0 34 0;
#X connect 5 0 8 0;
#X connect 6 0 5 0;
#X connect 6 0 16 0;
#X connect 7 0 5 1;
#X connect 8 0 2 1;
#X connect 9 0 1 0;
#X connect 10 0 9 0;
#X connect 10 0 16 1;
#X connect 11 0 10 0;
#X connect 11 0 35 0;
#X connect 12 0 15 0;
#X connect 13 0 12 0;
#X connect 13 0 16 1;
#X connect 13 0 21 0;
#X connect 14 0 12 1;
#X connect 15 0 9 1;
#X connect 16 0 43 0;
#X connect 18 0 1 0;
#X connect 18 0 20 0;
#X connect 19 0 0 0;
#X connect 20 0 22 0;
#X connect 21 0 20 1;
#X connect 22 0 17 0;
#X connect 23 0 24 0;
#X connect 23 0 63 0;
#X connect 24 0 13 0;
#X connect 25 0 23 0;
#X connect 26 0 30 0;
#X connect 27 0 26 0;
#X connect 28 0 43 1;
#X connect 29 0 28 0;
#X connect 30 0 6 0;
#X connect 31 0 33 0;
#X connect 31 0 49 0;
#X connect 32 0 31 0;
#X connect 33 0 29 0;
#X connect 34 0 36 0;
#X connect 35 0 36 1;
#X connect 36 0 43 0;
#X connect 36 0 53 0;
#X connect 37 0 38 0;
#X connect 38 0 0 0;
#X connect 38 0 1 0;
#X connect 39 0 40 0;
#X connect 40 0 91 0;
#X connect 40 1 89 0;
#X connect 40 2 88 0;
#X connect 40 3 90 0;
#X connect 41 0 39 0;
#X connect 41 0 42 0;
#X connect 41 0 44 0;
#X connect 42 0 41 1;
#X connect 42 0 44 1;
#X connect 43 0 17 0;
#X connect 43 0 38 1;
#X connect 43 0 53 0;
#X connect 44 0 45 0;
#X connect 45 0 46 0;
#X connect 46 0 77 0;
#X connect 46 1 75 0;
#X connect 46 2 74 0;
#X connect 46 3 76 0;
#X connect 47 0 1 0;
#X connect 47 0 50 0;
#X connect 48 0 47 0;
#X connect 49 0 48 0;
#X connect 50 0 17 0;
#X connect 51 0 53 0;
#X connect 51 0 17 0;
#X connect 51 0 64 1;
#X connect 52 0 51 0;
#X connect 54 0 55 0;
#X connect 55 0 43 0;
#X connect 56 0 57 0;
#X connect 57 0 22 0;
#X connect 58 0 1 0;
#X connect 59 0 58 0;
#X connect 60 0 62 1;
#X connect 61 0 60 0;
#X connect 62 0 1 0;
#X connect 63 0 61 0;
#X connect 64 0 62 0;
#X connect 66 0 27 0;
#X connect 66 0 41 0;
#X connect 66 0 25 0;
#X connect 66 0 32 0;
#X connect 66 0 82 0;
#X connect 67 0 68 0;
#X connect 67 0 69 0;
#X connect 67 0 73 0;
#X connect 67 0 78 0;
#X connect 67 0 80 0;
#X connect 68 0 70 0;
#X connect 69 0 71 0;
#X connect 70 0 83 0;
#X connect 71 0 83 0;
#X connect 72 0 83 0;
#X connect 73 0 83 0;
#X connect 74 0 73 0;
#X connect 75 0 71 0;
#X connect 76 0 72 0;
#X connect 77 0 70 0;
#X connect 78 0 72 0;
#X connect 79 0 81 0;
#X connect 80 0 79 0;
#X connect 80 0 92 0;
#X connect 81 0 52 0;
#X connect 82 0 81 0;
#X connect 83 0 4 0;
#X connect 84 0 93 0;
#X connect 85 0 96 0;
#X connect 86 0 94 0;
#X connect 87 0 95 0;
#X connect 88 0 95 0;
#X connect 89 0 93 0;
#X connect 90 0 96 0;
#X connect 91 0 94 0;
#X connect 92 0 84 0;
#X connect 92 0 85 0;
#X connect 92 0 86 0;
#X connect 92 0 87 0;
#X connect 93 0 97 0;
#X connect 94 0 97 0;
#X connect 95 0 97 0;
#X connect 96 0 97 0;
#X connect 97 0 11 0;
#X connect 98 0 67 0;
#X coords 0 0 1 1 200 140 0;
#X restore 297 227 pd tranpura-drone;
#X obj 382 194 receive revGain;
#X obj 405 261 receive revVol;
#X obj 297 157 receive tanpura;
#X obj 253 194 receive tanVol;
#X obj 297 359 *~;
#X obj 352 359 r tanpura;
#X connect 1 0 8 0;
#X connect 2 0 8 0;
#X connect 3 0 1 0;
#X connect 3 0 2 0;
#X connect 4 0 1 1;
#X connect 5 0 1 2;
#X connect 6 0 3 0;
#X connect 7 0 2 1;
#X connect 8 0 0 0;
#X connect 9 0 8 1;
#X restore 318 256 pd tanpura;
#X obj 353 344 receive masterVolume;
#X obj 308 309 +~;
#N canvas 0 22 450 300 metroo 0;
#X msg 812 535 125;
#X msg 867 535 175;
#X msg 923 535 250;
#X obj 812 502 r m125;
#X obj 867 502 r m175;
#X obj 923 502 r m250;
#X floatatom 812 591 5 0 0 0 - - mainMetro 12;
#X floatatom 721 535 5 0 0 0 - - BPM 12;
#X obj 721 502 r manMetro;
#X connect 0 0 6 0;
#X connect 1 0 6 0;
#X connect 2 0 6 0;
#X connect 3 0 0 0;
#X connect 4 0 1 0;
#X connect 5 0 2 0;
#X connect 8 0 7 0;
#X restore 353 309 pd metroo;
#N canvas 0 22 450 300 voice 0;
#N canvas 0 22 450 300 voice-samples 0;
#X obj 569 286 soundfiler;
#N canvas 0 0 450 250 (subpatch) 0;
#X array vocData1 126000 float 2;
#X coords 0 1 126000 -1 200 140 1;
#X restore 569 349 graph;
#X obj 569 198 loadbang;
#X obj 569 605 soundfiler;
#N canvas 0 0 450 250 (subpatch) 0;
#X array vocData5 114000 float 2;
#X coords 0 1 114000 -1 200 140 1;
#X restore 569 668 graph;
#X obj 569 517 loadbang;
#X obj 828 286 soundfiler;
#N canvas 0 0 450 250 (subpatch) 0;
#X array vocData2 113244 float 2;
#X coords 0 1 113244 -1 200 140 1;
#X restore 828 349 graph;
#X obj 828 198 loadbang;
#X obj 838 605 soundfiler;
#N canvas 0 0 450 250 (subpatch) 0;
#X array vocData6 108000 float 2;
#X coords 0 1 108000 -1 200 140 1;
#X restore 838 668 graph;
#X obj 838 517 loadbang;
#X obj 1081 605 soundfiler;
#N canvas 0 0 450 250 (subpatch) 0;
#X array vocData7 111594 float 2;
#X coords 0 1 111594 -1 200 140 1;
#X restore 1081 668 graph;
#X obj 1081 517 loadbang;
#X obj 1080 289 soundfiler;
#N canvas 0 0 450 250 (subpatch) 0;
#X array vocData3 112319 float 2;
#X coords 0 1 112319 -1 200 140 1;
#X restore 1080 352 graph;
#X obj 1080 201 loadbang;
#X obj 1335 287 soundfiler;
#N canvas 0 0 450 250 (subpatch) 0;
#X array vocData4 126000 float 2;
#X coords 0 1 126000 -1 200 140 1;
#X restore 1335 350 graph;
#X obj 1335 199 loadbang;
#X obj 1335 605 soundfiler;
#N canvas 0 0 450 250 (subpatch) 0;
#X array vocData8 110700 float 2;
#X coords 0 1 110700 -1 200 140 1;
#X restore 1335 668 graph;
#X obj 1335 517 loadbang;
#X msg 569 244 read -resize Voice/Sa1.wav vocData1;
#X msg 828 244 read -resize Voice/Re2.wav vocData2;
#X msg 1335 245 read -resize Voice/Ma4.wav vocData4;
#X msg 1080 247 read -resize Voice/Ga3.wav vocData3;
#X msg 569 563 read -resize Voice/Pa5.wav vocData5;
#X msg 1335 563 read -resize Voice/Sa8.wav vocData8;
#X msg 1081 563 read -resize Voice/Ni7.wav vocData7;
#X msg 838 563 read -resize Voice/Dha6.wav vocData6;
#X connect 2 0 24 0;
#X connect 5 0 28 0;
#X connect 8 0 25 0;
#X connect 11 0 31 0;
#X connect 14 0 30 0;
#X connect 17 0 27 0;
#X connect 20 0 26 0;
#X connect 23 0 29 0;
#X connect 24 0 0 0;
#X connect 25 0 6 0;
#X connect 26 0 18 0;
#X connect 27 0 15 0;
#X connect 28 0 3 0;
#X connect 29 0 21 0;
#X connect 30 0 12 0;
#X connect 31 0 9 0;
#X restore 623 149 pd voice-samples;
#X obj 145 573 tabplay~ vocData1;
#X obj 278 573 tabplay~ vocData2;
#X obj 417 573 tabplay~ vocData3;
#X obj 553 573 tabplay~ vocData4;
#X obj 205 605 tabplay~ vocData5;
#X obj 338 605 tabplay~ vocData6;
#X obj 477 605 tabplay~ vocData7;
#X obj 613 605 tabplay~ vocData8;
#X obj 348 418 sel 0 1 2 3 4 5 6;
#X obj 386 753 *~ 0.2;
#X obj 362 373 random 7;
#X obj 362 331 bng 25 250 50 0 empty empty empty 17 7 0 10 #e4e4e4 #4d4d4d #373737;
#X obj 362 250 metro 2000;
#X floatatom 504 418 5 0 0 0 - - - 12;
#N canvas 0 22 450 300 reverbVoc 0;
#X obj 532 306 *~;
#X obj 625 361 rev2~ 100 90 3000 20;
#X obj 564 393 *~;
#X obj 624 413 *~;
#X obj 550 489 +~;
#X obj 550 596 outlet~;
#X obj 583 243 inlet;
#X obj 687 393 inlet;
#X obj 550 542 +~;
#X obj 497 377 +~;
#X obj 496 243 inlet~;
#X connect 0 0 1 0;
#X connect 0 0 9 0;
#X connect 1 0 2 0;
#X connect 1 1 3 0;
#X connect 2 0 4 1;
#X connect 3 0 4 1;
#X connect 4 0 8 0;
#X connect 6 0 0 1;
#X connect 7 0 3 1;
#X connect 8 0 5 0;
#X connect 9 0 4 0;
#X connect 10 0 0 0;
#X restore 386 815 pd reverbVoc;
#X obj 386 855 *~;
#X obj 431 855 r vocVol;
#X msg 461 776 0.5;
#X obj 743 399 bng 25 250 50 0 empty empty empty 17 7 0 10 #e4e4e4 #4d4d4d #373737;
#X obj 743 729 bng 25 250 50 0 empty empty empty 17 7 0 10 #e4e4e4 #4d4d4d #373737;
#X obj 386 895 outlet~;
#X obj 362 216 r vocalON;
#X obj 455 182 r manMetro;
#X floatatom 461 265 7 0 0 0 - - - 12;
#X obj 461 216 expr (60 * 8000 / $f1);
#X connect 1 0 10 0;
#X connect 2 0 10 0;
#X connect 3 0 10 0;
#X connect 4 0 10 0;
#X connect 5 0 10 0;
#X connect 6 0 10 0;
#X connect 7 0 10 0;
#X connect 8 0 10 0;
#X connect 9 0 1 0;
#X connect 9 0 5 0;
#X connect 9 1 2 0;
#X connect 9 1 1 0;
#X connect 9 1 8 0;
#X connect 9 2 3 0;
#X connect 9 2 8 0;
#X connect 9 3 4 0;
#X connect 9 3 2 0;
#X connect 9 4 5 0;
#X connect 9 4 3 0;
#X connect 9 5 6 0;
#X connect 9 5 5 0;
#X connect 9 6 7 0;
#X connect 9 6 4 0;
#X connect 9 7 8 0;
#X connect 9 7 5 0;
#X connect 10 0 15 0;
#X connect 11 0 9 0;
#X connect 11 0 14 0;
#X connect 12 0 11 0;
#X connect 12 0 19 0;
#X connect 13 0 12 0;
#X connect 15 0 16 0;
#X connect 16 0 21 0;
#X connect 17 0 16 1;
#X connect 18 0 15 1;
#X connect 18 0 15 2;
#X connect 19 0 20 0;
#X connect 20 0 18 0;
#X connect 22 0 13 0;
#X connect 23 0 25 0;
#X connect 25 0 24 0;
#X connect 25 0 13 1;
#X restore 420 256 pd voice;
#X connect 1 0 0 0;
#X connect 1 0 0 1;
#X connect 2 0 5 0;
#X connect 3 0 5 0;
#X connect 4 0 1 1;
#X connect 5 0 1 0;
#X connect 7 0 5 1;
#X coords 0 0 1 1 148 176 2 0 0;
#X restore 63 362 pd master;
#X obj 302 226 tgl 25 0 revTanPlay empty Reverb 29 12 0 14 #dce432 #4d4d4d #c20007 0 1;
#X obj 527 224 tgl 25 0 fillTab empty Fill\ Tabla 29 12 0 14 #dce432 #4d4d4d #1a1fc2 0 1;
#X obj 723 149 knob 50 0 10 0 0 vocVol empty #dce444 #B7B7B7 #4D4D4D 1 0 0 0 1 270 0 0 0;
#X obj 74 280 tgl 50 0 vocalON empty empty 17 7 0 10 #e418da #ffffff #373737 0 1;
#X text 130 294 VOCAL ON, f 16;
#X text 718 128 Voice Vol;
#X obj 302 420 keyboard 16 80 4 2 0 0 tanScale empty;
#X text 302 391 Tanpura Scale;
